<?xml version="1.0" standalone="no"?>
<!DOCTYPE svg PUBLIC "-//W3C//DTD SVG 20010904//EN"
 "http://www.w3.org/TR/2001/REC-SVG-20010904/DTD/svg10.dtd">
<svg version="1.0" xmlns="http://www.w3.org/2000/svg"
 width="512.000000pt" height="512.000000pt" viewBox="0 0 512.000000 512.000000"
 preserveAspectRatio="xMidYMid meet">

<g transform="translate(0.000000,512.000000) scale(0.100000,-0.100000)"
fill="#000000" stroke="none">
<path d="M2105 4945 c-48 -25 -1908 -1693 -1927 -1728 -24 -45 -22 -105 5
-149 32 -55 1876 -1698 1931 -1722 73 -32 158 0 197 74 18 32 19 65 19 447 l0
413 24 0 c81 0 299 -24 401 -45 534 -108 1030 -445 1388 -945 190 -266 345
-586 447 -924 24 -79 48 -139 62 -153 67 -72 169 -71 237 0 38 41 61 219 68
529 6 282 -3 420 -43 658 -121 717 -459 1385 -949 1875 -151 152 -252 234
-425 350 -345 231 -715 359 -1097 382 l-112 6 -3 423 c-3 409 -4 423 -24 450
-11 15 -32 37 -46 47 -35 26 -114 32 -153 12z m-70 -1174 c11 -19 40 -45 64
-58 40 -21 57 -23 180 -23 223 0 400 -29 618 -102 737 -244 1345 -937 1604
-1825 48 -167 120 -536 119 -616 0 -7 -24 29 -54 79 -69 118 -178 278 -262
384 -90 113 -358 380 -464 462 -285 219 -592 372 -910 453 -313 79 -722 97
-838 37 -74 -38 -76 -48 -82 -398 l-5 -310 -435 389 c-576 515 -959 857 -988
882 l-23 20 392 350 c215 193 541 483 723 646 l331 296 5 -316 c5 -294 6 -318
25 -350z"/>
</g>
</svg>
