<?xml version="1.0" standalone="no"?>
<!DOCTYPE svg PUBLIC "-//W3C//DTD SVG 20010904//EN"
 "http://www.w3.org/TR/2001/REC-SVG-20010904/DTD/svg10.dtd">
<svg version="1.0" xmlns="http://www.w3.org/2000/svg"
 width="50.000000pt" height="50.000000pt" viewBox="0 0 50.000000 50.000000"
 preserveAspectRatio="xMidYMid meet">

<g transform="translate(0.000000,50.000000) scale(0.100000,-0.100000)"
fill="#000000" stroke="none">
<path d="M230 449 c0 -11 18 -42 40 -68 34 -40 40 -54 40 -93 0 -42 3 -48 34
-67 18 -12 36 -21 40 -21 3 0 6 30 6 67 0 63 2 69 40 114 22 26 40 57 40 68 0
20 -5 21 -120 21 -115 0 -120 -1 -120 -21z m220 -5 c0 -4 -16 -27 -36 -50 -27
-33 -42 -44 -64 -44 -22 0 -37 11 -64 44 -20 23 -36 46 -36 50 0 3 45 6 100 6
55 0 100 -3 100 -6z m-80 -164 c0 -48 -1 -50 -20 -38 -14 9 -20 24 -20 50 0
31 4 38 20 38 17 0 20 -7 20 -50z"/>
<path d="M144 441 c-29 -17 -64 -73 -64 -102 0 -6 -12 -36 -27 -66 l-28 -54
27 -22 c17 -14 28 -36 32 -62 6 -44 27 -65 63 -65 16 0 23 -6 23 -20 0 -11 5
-20 10 -20 6 0 10 14 10 30 0 28 -3 30 -35 30 -39 0 -49 13 -60 83 -3 20 -9
37 -13 37 -28 1 -30 18 -7 65 14 26 25 56 25 64 0 30 41 82 75 97 19 8 35 16
35 19 0 11 -37 4 -66 -14z"/>
<path d="M361 149 c-13 -38 -15 -119 -2 -119 5 0 11 26 13 58 3 31 9 65 13 75
4 10 3 17 -3 17 -6 0 -15 -14 -21 -31z"/>
</g>
</svg>
