<?xml version="1.0" standalone="no"?>
<!DOCTYPE svg PUBLIC "-//W3C//DTD SVG 20010904//EN"
 "http://www.w3.org/TR/2001/REC-SVG-20010904/DTD/svg10.dtd">
<svg version="1.0" xmlns="http://www.w3.org/2000/svg"
 width="50.000000pt" height="50.000000pt" viewBox="0 0 50.000000 50.000000"
 preserveAspectRatio="xMidYMid meet">

<g transform="translate(0.000000,50.000000) scale(0.100000,-0.100000)"
fill="#000000" stroke="none">
<path d="M187 476 c-7 -6 -24 -17 -39 -23 -14 -6 -29 -22 -33 -34 -4 -13 -13
-29 -20 -35 -14 -15 -14 -122 1 -132 5 -4 17 -22 26 -39 16 -32 16 -35 -8 -88
-13 -31 -24 -58 -24 -60 0 -3 18 -5 40 -5 31 0 43 -5 56 -25 22 -33 30 -32 45
10 7 19 16 35 19 35 3 0 12 -16 19 -35 15 -42 25 -44 47 -10 13 20 25 25 56
25 36 0 39 2 32 23 -3 12 -15 39 -25 59 -18 35 -18 38 -1 69 9 18 22 39 28 45
13 15 12 123 -2 132 -5 4 -15 19 -21 34 -7 14 -22 30 -35 33 -13 4 -26 12 -30
18 -9 14 -117 17 -131 3z m121 -24 c2 -6 11 -12 21 -12 22 0 41 -19 41 -41 0
-10 6 -19 12 -21 18 -6 19 -108 1 -115 -7 -3 -13 -13 -13 -22 0 -22 -19 -41
-41 -41 -9 0 -19 -6 -22 -13 -7 -18 -109 -17 -115 1 -2 6 -11 12 -21 12 -22 0
-41 19 -41 41 0 10 -6 19 -12 21 -18 6 -19 108 -1 115 7 3 13 13 13 22 0 22
19 41 41 41 9 0 19 6 22 13 7 18 109 17 115 -1z m-121 -288 c11 -10 25 -13 44
-9 l29 7 -25 -58 c-31 -71 -31 -70 -45 -45 -7 14 -21 21 -40 21 -17 0 -30 2
-30 4 0 9 42 96 46 96 3 0 12 -7 21 -16z m173 -30 c11 -26 20 -48 20 -50 0 -2
-13 -4 -30 -4 -20 0 -33 -7 -41 -22 -11 -21 -12 -21 -31 15 -21 42 -13 71 22
82 11 3 20 11 20 16 0 24 21 4 40 -37z"/>
<path d="M285 330 c-20 -33 -42 -60 -48 -60 -6 0 -23 12 -38 26 -15 14 -30 21
-33 16 -3 -5 14 -26 37 -45 39 -31 44 -33 54 -19 5 10 26 43 46 74 21 31 33
59 28 63 -5 3 -26 -22 -46 -55z"/>
</g>
</svg>
